<svg width="169" height="48" viewBox="0 0 169 48" fill="none" xmlns="http://www.w3.org/2000/svg">
<mask id="path-1-inside-1_22_2291" fill="white">
<path fill-rule="evenodd" clip-rule="evenodd" d="M0 24L15 0H154L169 24L154 48H15L0 24Z"/>
</mask>
<path d="M15 0V-1H14.4458L14.152 -0.529999L15 0ZM0 24L-0.847998 23.47L-1.17925 24L-0.847998 24.53L0 24ZM154 0L154.848 -0.529999L154.554 -1H154V0ZM169 24L169.848 24.53L170.179 24L169.848 23.47L169 24ZM154 48V49H154.554L154.848 48.53L154 48ZM15 48L14.152 48.53L14.4458 49H15V48ZM14.152 -0.529999L-0.847998 23.47L0.847998 24.53L15.848 0.529999L14.152 -0.529999ZM154 -1H15V1H154V-1ZM169.848 23.47L154.848 -0.529999L153.152 0.529999L168.152 24.53L169.848 23.47ZM154.848 48.53L169.848 24.53L168.152 23.47L153.152 47.47L154.848 48.53ZM15 49H154V47H15V49ZM-0.847998 24.53L14.152 48.53L15.848 47.47L0.847998 23.47L-0.847998 24.53Z" fill="#00A49A" mask="url(#path-1-inside-1_22_2291)"/>
</svg>
