<svg width="113" height="40" viewBox="0 0 113 40" fill="none" xmlns="http://www.w3.org/2000/svg">
<mask id="path-1-inside-1_138_5513" fill="white">
<path fill-rule="evenodd" clip-rule="evenodd" d="M0 20L13 0H100L113 20L100 40H13L0 20Z"/>
</mask>
<path d="M13 0V-1H12.4573L12.1616 -0.544988L13 0ZM0 20L-0.838444 19.455L-1.19269 20L-0.838444 20.545L0 20ZM100 0L100.838 -0.544988L100.543 -1H100V0ZM113 20L113.838 20.545L114.193 20L113.838 19.455L113 20ZM100 40V41H100.543L100.838 40.545L100 40ZM13 40L12.1616 40.545L12.4573 41H13V40ZM12.1616 -0.544988L-0.838444 19.455L0.838444 20.545L13.8384 0.544988L12.1616 -0.544988ZM100 -1H13V1H100V-1ZM113.838 19.455L100.838 -0.544988L99.1616 0.544988L112.162 20.545L113.838 19.455ZM100.838 40.545L113.838 20.545L112.162 19.455L99.1616 39.455L100.838 40.545ZM13 41H100V39H13V41ZM-0.838444 20.545L12.1616 40.545L13.8384 39.455L0.838444 19.455L-0.838444 20.545Z" fill="#00A49A" mask="url(#path-1-inside-1_138_5513)"/>
</svg>
