<svg width="335" height="311" viewBox="0 0 335 311" fill="none" xmlns="http://www.w3.org/2000/svg">
<g clip-path="url(#clip0_177_5862)">
<path d="M287.733 457.866C287.424 455.802 286.383 453.919 284.802 452.558C283.22 451.198 281.203 450.452 279.117 450.456H278.271L150.561 228.953C151.71 227.434 152.332 225.582 152.332 223.677C152.332 222.53 152.106 221.393 151.667 220.333C151.228 219.272 150.585 218.309 149.773 217.498C148.962 216.686 147.999 216.042 146.939 215.603C145.879 215.164 144.743 214.938 143.595 214.938C143.233 214.918 142.87 214.918 142.508 214.938L52.04 58.3557C52.834 57.2581 53.3582 55.9887 53.57 54.6505H278.634V51.9523H53.57C53.3161 50.348 52.62 48.8463 51.5603 47.6156C50.5007 46.3849 49.1194 45.4739 47.571 44.9849L50.0269 27.9091L47.3695 27.5467L44.9136 44.542C43.3236 44.5492 41.766 44.9923 40.4102 45.823C39.0544 46.6538 37.9522 47.8404 37.2234 49.2539H10.3288V0.0400391H7.67139V49.2539H-18.2172C-18.9526 47.8372 -20.0618 46.649 -21.4246 45.8184C-22.7873 44.9877 -24.3513 44.5463 -25.9471 44.542H-26.9134L-29.3693 27.4661L-32.0267 27.8286L-29.5305 45.2266C-30.85 45.8362 -31.9993 46.7613 -32.877 47.9201C-33.7546 49.079 -34.3338 50.4361 -34.5632 51.8717H-260.633V54.57H-34.5632C-34.3988 55.5623 -34.0579 56.5172 -33.5567 57.3892L-124.468 215.018C-126.785 215.018 -129.007 215.939 -130.646 217.578C-132.284 219.217 -133.205 221.44 -133.205 223.758C-133.193 225.332 -132.763 226.875 -131.957 228.228L-260.11 450.456C-262.169 450.479 -264.153 451.233 -265.708 452.582C-267.264 453.932 -268.291 455.79 -268.605 457.826H-316.919V460.524H-268.605C-268.296 462.587 -267.256 464.471 -265.675 465.831C-264.093 467.191 -262.075 467.938 -259.989 467.934C-258.399 467.927 -256.842 467.484 -255.486 466.653C-254.13 465.822 -253.028 464.636 -252.299 463.222H1.3505C1.99344 464.424 2.90605 465.46 4.01677 466.25C5.12749 467.039 6.40595 467.561 7.75199 467.773V512.96H10.4094V467.773C11.7534 467.555 13.0294 467.031 14.1392 466.242C15.2491 465.453 16.1631 464.42 16.8109 463.222H271.507C272.236 464.636 273.338 465.822 274.694 466.653C276.05 467.484 277.607 467.927 279.197 467.934C281.283 467.938 283.301 467.191 284.882 465.831C286.464 464.471 287.504 462.587 287.813 460.524H335.08V457.826L287.733 457.866ZM271.628 455.168H47.4098C81.5343 446.696 111.848 427.056 133.529 399.37C155.211 371.683 167.016 337.541 167.068 302.371C167.063 290.166 165.645 278.003 162.841 266.125L271.548 454.926L271.628 455.168ZM-18.0157 57.2683H7.8729V144.983C1.23215 145.07 -5.39708 145.568 -11.9764 146.473L-24.0549 61.8997C-22.7974 61.614 -21.6201 61.0495 -20.6097 60.2479C-19.5993 59.4463 -18.7817 58.4281 -18.2172 57.2683H-18.0157ZM42.6592 61.5775L30.5806 146.151C24.0008 145.266 17.3703 144.809 10.7313 144.782V57.0669H37.6264C38.5844 59.1452 40.3189 60.7648 42.4577 61.5775H42.6592ZM10.4497 150.179C16.8322 150.232 23.2054 150.676 29.5338 151.508L10.4497 283.483V150.179ZM7.7923 150.179V283.443L-11.2918 151.588C-5.00096 150.802 1.33166 150.398 7.67139 150.38L7.7923 150.179ZM135.986 219.61C135.336 220.853 134.991 222.234 134.979 223.637C134.978 225.889 135.85 228.054 137.412 229.677C138.973 231.299 141.103 232.252 143.354 232.336L149.957 243.814C157.674 262.314 161.643 282.163 161.633 302.21C161.579 341.359 146.444 378.982 119.376 407.258C92.3073 435.534 55.3866 452.289 16.2875 454.04C15.6077 453.078 14.7397 452.265 13.7362 451.649C12.7327 451.032 11.6147 450.627 10.4497 450.456V310.828C12.5056 310.504 14.3791 309.459 15.736 307.88C17.093 306.301 17.845 304.292 17.8578 302.21C17.8548 300.345 17.2553 298.529 16.1469 297.029C15.0386 295.529 13.4793 294.423 11.6976 293.873L32.1907 151.87C71.395 157.77 106.739 178.771 130.671 210.387L135.986 219.61ZM32.9962 146.473L45.0748 61.8997L117.546 187.713C94.1795 165.698 64.6289 151.376 32.8753 146.675L32.9962 146.473ZM-14.7139 146.473C-47.2389 151.578 -77.3376 166.779 -100.754 189.928L-27.0343 62.383L-14.7139 146.473ZM-13.9492 151.789L6.54394 293.672C4.76218 294.222 3.20345 295.328 2.09509 296.828C0.986725 298.328 0.387244 300.143 0.384257 302.009C0.396983 304.09 1.14851 306.1 2.50547 307.679C3.86244 309.257 5.73639 310.302 7.7923 310.627V450.254C6.62868 450.43 5.51214 450.837 4.50923 451.453C3.50632 452.069 2.63723 452.88 1.95404 453.838C-36.9565 451.818 -73.6101 434.946 -100.456 406.699C-127.301 378.452 -142.294 340.982 -142.344 302.009C-142.383 278.932 -137.121 256.156 -126.964 235.437L-125.072 232.135H-124.468C-122.151 232.135 -119.928 231.214 -118.29 229.575C-116.651 227.936 -115.731 225.713 -115.731 223.395C-115.737 221.647 -116.255 219.939 -117.221 218.482L-116.536 217.314C-104.842 200 -89.7096 185.279 -72.0811 174.069C-54.4527 162.858 -34.7059 155.398 -14.0701 152.152L-13.9492 151.789ZM-28.0408 455.168H-252.259C-252.42 454.797 -252.623 454.446 -252.863 454.12L-142.787 263.266C-146.066 276.042 -147.716 289.181 -147.699 302.371C-147.647 337.541 -135.842 371.683 -114.16 399.37C-92.4787 427.056 -62.1653 446.696 -28.0408 455.168V455.168Z" fill="#1A234E"/>
</g>
<defs>
<clipPath id="clip0_177_5862">
<rect width="335" height="311" fill="white"/>
</clipPath>
</defs>
</svg>
