<svg width="428" height="300" viewBox="0 0 428 300" fill="none" xmlns="http://www.w3.org/2000/svg">
<path d="M395 133H392V136H395V133Z" fill="#1F2A51"/>
<path d="M395 144H392V147H395V144Z" fill="#1F2A51"/>
<path d="M406 133H403V136H406V133Z" fill="#1F2A51"/>
<path d="M406 144H403V147H406V144Z" fill="#1F2A51"/>
<path d="M417 133H414V136H417V133Z" fill="#1F2A51"/>
<path d="M417 144H414V147H417V144Z" fill="#1F2A51"/>
<path d="M428 133H425V136H428V133Z" fill="#1F2A51"/>
<path d="M360.455 89.1797L310.736 119.011V59.3483L360.455 89.1797Z" stroke="#1F2A51" stroke-width="2"/>
<path d="M361.43 88.6423L412.125 60.5L411.149 2L360.455 30.1423L361.43 88.6423Z" stroke="#00A49A" stroke-width="2"/>
<path d="M-101.933 119.011L-2.49434 178.674L96.9438 119.011L-2.49434 59.3483L-101.933 119.011Z" stroke="#1F2A51" stroke-width="2"/>
<path d="M254.681 32.8315L256.631 148.779L155.243 205.063L153.292 89.116L254.681 32.8315Z" stroke="#1F2A51" stroke-width="2"/>
<path d="M267 151.758L256.589 145.512V205.175L267 198.929M267 151.758V198.929M267 151.758L278 158.358M267 198.929L278 192.329M278 158.358V192.329M278 158.358L289.5 165.258M278 192.329L289.5 185.429M289.5 165.258L306.308 175.344L289.5 185.429M289.5 165.258V185.429" stroke="#00A49A" stroke-width="2"/>
</svg>
