<svg width="374" height="328" viewBox="0 0 374 328" fill="none" xmlns="http://www.w3.org/2000/svg">
<path d="M90.3585 78.497L135.979 53.1713L135.101 1L89.4808 26.3256L90.3585 78.497Z" stroke="#2D3C71"/>
<path d="M89.4807 78.5542L44.7378 105.4V51.7085L89.4807 78.5542Z" stroke="#00A49A"/>
<path d="M328.109 51.7085L372.852 78.5543V24.8628L328.109 51.7085Z" stroke="#00A49A"/>
<path d="M137.347 270.443V211.531L122.293 203.322M90.9733 186.683L-1.49533 238.883V596.081M90.9733 186.683V294.812M90.9733 186.683L105.888 194.606M105.888 194.606V286.213M105.888 194.606L122.293 203.322M122.293 203.322V278.208" stroke="#2D3C71"/>
<path d="M325.125 596.08L325.125 103.675L310.212 95.7057M278.892 79.0669L137.347 161.423V212.132M278.892 79.0669V596.08M278.892 79.0669L293.807 86.9901M293.807 86.9901V596.08M293.807 86.9901L310.212 95.7057M310.212 95.7057V596.08" stroke="#2D3C71"/>
<path d="M231.165 106.654V104.654L216.252 96.6847M184.932 80.0459L44.7391 160.583L44.7391 212.037M184.932 80.0459V133.844M184.932 80.0459L199.846 87.9691M199.846 87.9691V124.91M199.846 87.9691L216.252 96.6847M216.252 96.6847V115.588" stroke="#2D3C71"/>
<path d="M184.932 405.178L184.932 294.812L168.899 286.294M137.206 269.458L44.7377 321.658V595.335M137.206 269.458V377.586M137.206 269.458L152.866 277.777M152.866 277.777V386.535M152.866 277.777L168.899 286.294M168.899 286.294V396.229" stroke="#00A49A"/>
</svg>
