<svg width="607" height="364" viewBox="0 0 607 364" fill="none" xmlns="http://www.w3.org/2000/svg">
<path d="M188.92 159.091L233.663 185.937V132.246L188.92 159.091Z" stroke="#00A49A"/>
<path d="M284.372 212.783L373.857 266.474V159.091L284.372 212.783Z" stroke="#2D3C71"/>
<path d="M284.372 105.4L373.857 159.092L463.343 105.4L373.857 51.7085L284.372 105.4Z" stroke="#2D3C71"/>
<path d="M189.184 272.44L187.429 376.783L278.67 427.434L280.425 323.091L189.184 272.44Z" stroke="#00A49A"/>
<path d="M605.293 27.8457L607.048 132.188L515.807 182.84L514.051 78.4969L605.293 27.8457Z" stroke="#00A49A"/>
<path d="M608.758 595.335V349.249L592.725 340.731M561.032 323.895L468.563 376.095V595.335M561.032 323.895V595.335M561.032 323.895L576.692 332.214M576.692 332.214V595.335M576.692 332.214L592.725 340.731M592.725 340.731V595.335" stroke="#2D3C71"/>
<path d="M561.032 323.894V214.274L544.999 205.757M513.306 188.92L467.817 214.274V268.711M513.306 188.92V350.74M513.306 188.92L528.966 197.239M528.966 197.239V341.791M528.966 197.239L544.999 205.757M544.999 205.757V332.843" stroke="#2D3C71"/>
<path d="M373.857 595.335V267.221L389.89 258.703M421.583 241.866L514.052 296.303V352M421.583 241.866V595.335M421.583 241.866L405.923 250.186M405.923 250.186V595.335M405.923 250.186L389.89 258.703M389.89 258.703V595.335" stroke="#00A49A"/>
</svg>
