<svg width="48" height="48" viewBox="0 0 48 48" fill="none" xmlns="http://www.w3.org/2000/svg">
<path d="M10 30H38V32H10V30ZM10 34H38V36H10V34ZM32 18C31.6044 18 31.2178 18.1173 30.8889 18.3371C30.56 18.5568 30.3036 18.8692 30.1522 19.2346C30.0009 19.6001 29.9613 20.0022 30.0384 20.3902C30.1156 20.7781 30.3061 21.1345 30.5858 21.4142C30.8655 21.6939 31.2219 21.8844 31.6098 21.9616C31.9978 22.0387 32.3999 21.9991 32.7654 21.8478C33.1308 21.6964 33.4432 21.44 33.6629 21.1111C33.8827 20.7822 34 20.3956 34 20C34 19.4696 33.7893 18.9609 33.4142 18.5858C33.0391 18.2107 32.5304 18 32 18ZM24 24C23.2089 24 22.4355 23.7654 21.7777 23.3259C21.1199 22.8864 20.6072 22.2616 20.3045 21.5307C20.0017 20.7998 19.9225 19.9956 20.0769 19.2196C20.2312 18.4437 20.6122 17.731 21.1716 17.1716C21.731 16.6122 22.4437 16.2312 23.2196 16.0769C23.9956 15.9225 24.7998 16.0017 25.5307 16.3045C26.2616 16.6072 26.8864 17.1199 27.3259 17.7777C27.7654 18.4355 28 19.2089 28 20C27.9987 21.0605 27.5768 22.0771 26.827 22.827C26.0771 23.5768 25.0605 23.9987 24 24ZM24 18C23.6044 18 23.2178 18.1173 22.8889 18.3371C22.56 18.5568 22.3036 18.8692 22.1522 19.2346C22.0009 19.6001 21.9613 20.0022 22.0384 20.3902C22.1156 20.7781 22.3061 21.1345 22.5858 21.4142C22.8655 21.6939 23.2219 21.8844 23.6098 21.9616C23.9978 22.0387 24.3999 21.9991 24.7654 21.8478C25.1308 21.6964 25.4432 21.44 25.6629 21.1111C25.8827 20.7822 26 20.3956 26 20C25.9995 19.4697 25.7886 18.9613 25.4136 18.5864C25.0387 18.2114 24.5303 18.0005 24 18ZM16 18C15.6044 18 15.2178 18.1173 14.8889 18.3371C14.56 18.5568 14.3036 18.8692 14.1522 19.2346C14.0009 19.6001 13.9613 20.0022 14.0384 20.3902C14.1156 20.7781 14.3061 21.1345 14.5858 21.4142C14.8655 21.6939 15.2219 21.8844 15.6098 21.9616C15.9978 22.0387 16.3999 21.9991 16.7654 21.8478C17.1308 21.6964 17.4432 21.44 17.6629 21.1111C17.8827 20.7822 18 20.3956 18 20C18 19.4696 17.7893 18.9609 17.4142 18.5858C17.0391 18.2107 16.5304 18 16 18Z" fill="#00A49A"/>
<path d="M36 28H12C11.47 27.9987 10.962 27.7875 10.5872 27.4128C10.2125 27.038 10.0013 26.53 10 26V14C10.0013 13.47 10.2125 12.962 10.5872 12.5872C10.962 12.2125 11.47 12.0013 12 12H36C36.53 12.0013 37.038 12.2125 37.4128 12.5872C37.7875 12.962 37.9987 13.47 38 14V26C37.9992 26.5302 37.7882 27.0384 37.4133 27.4133C37.0384 27.7882 36.5302 27.9992 36 28ZM36 14H12V26H36V14Z" fill="#00A49A"/>
</svg>
