<svg width="408" height="268" viewBox="0 0 408 268" fill="none" xmlns="http://www.w3.org/2000/svg">
<path d="M52.6944 57.116L2 28.9737L2.97525 -29L53.6696 -0.857725L52.6944 57.116Z" stroke="#00A49A" stroke-width="2"/>
<path d="M53.6696 57.1797L103.389 87.0112V27.3483L53.6696 57.1797Z" stroke="#1F2A51" stroke-width="2"/>
<path d="M516.057 87.0112L416.619 146.674L317.181 87.0112L416.619 27.3483L516.057 87.0112Z" stroke="#1F2A51" stroke-width="2"/>
<path d="M159.444 0.831543L157.493 116.779L258.882 173.064L260.832 57.1161L159.444 0.831543Z" stroke="#1F2A51" stroke-width="2"/>
<path d="M107.816 147.343L157.535 177.175V117.512L107.816 147.343Z" stroke="#00A49A" stroke-width="2"/>
<path d="M81 119H84V116H81V119Z" fill="#1F2A51"/>
<path d="M81 108H84V105H81V108Z" fill="#1F2A51"/>
<path d="M70 119H73V116H70V119Z" fill="#1F2A51"/>
<path d="M70 108H73V105H70V108Z" fill="#1F2A51"/>
<path d="M59 119H62V116H59V119Z" fill="#1F2A51"/>
<path d="M59 108H62V105H59V108Z" fill="#1F2A51"/>
<path d="M48 119H51V116H48V119Z" fill="#1F2A51"/>
</svg>
