<svg width="566" height="299" viewBox="0 0 566 299" fill="none" xmlns="http://www.w3.org/2000/svg">
<path d="M52.5698 88.116L1.87549 59.9737L2.85074 2L53.5451 30.1423L52.5698 88.116Z" stroke="#00A49A" stroke-width="2"/>
<path d="M53.5451 88.1798L103.264 118.011V58.3484L53.5451 88.1798Z" stroke="#1F2A51" stroke-width="2"/>
<path d="M515.932 237.337L416.494 297V177.674L515.932 237.337Z" stroke="#1F2A51" stroke-width="2"/>
<path d="M515.933 118.011L416.494 177.674L317.056 118.011L416.494 58.3484L515.933 118.011Z" stroke="#1F2A51" stroke-width="2"/>
<path d="M159.319 31.8315L157.369 147.779L258.757 204.064L260.708 88.1161L159.319 31.8315Z" stroke="#1F2A51" stroke-width="2"/>
<path d="M107.692 178.343L157.411 208.175V148.512L107.692 178.343Z" stroke="#00A49A" stroke-width="2"/>
<path d="M80.8755 150H83.8755V147H80.8755V150Z" fill="#1F2A51"/>
<path d="M80.8755 139H83.8755V136H80.8755V139Z" fill="#1F2A51"/>
<path d="M69.8755 150H72.8755V147H69.8755V150Z" fill="#1F2A51"/>
<path d="M69.8755 139H72.8755V136H69.8755V139Z" fill="#1F2A51"/>
<path d="M58.8755 150H61.8755V147H58.8755V150Z" fill="#1F2A51"/>
<path d="M58.8755 139H61.8755V136H58.8755V139Z" fill="#1F2A51"/>
<path d="M47.8755 150H50.8755V147H47.8755V150Z" fill="#1F2A51"/>
</svg>
