<svg width="48" height="48" viewBox="0 0 48 48" fill="none" xmlns="http://www.w3.org/2000/svg">
<path d="M34 28L35.427 29.903L31 34.963L26.573 29.903L28 28H34ZM35 26H27L24 30L31 38L38 30L35 26Z" fill="#00A49A"/>
<path d="M24 36H16V12H24V18C24.0016 18.5299 24.2128 19.0377 24.5875 19.4124C24.9623 19.7872 25.4701 19.9984 26 20H32V23H34V18C34.0035 17.8686 33.9785 17.7379 33.9268 17.6171C33.875 17.4962 33.7976 17.3881 33.7 17.3L26.7 10.3C26.612 10.2023 26.5038 10.1249 26.3829 10.0731C26.2621 10.0213 26.1314 9.99638 26 9.99997H16C15.4701 10.0016 14.9623 10.2128 14.5875 10.5875C14.2128 10.9622 14.0016 11.47 14 12V36C14.0016 36.5299 14.2128 37.0377 14.5875 37.4124C14.9623 37.7872 15.4701 37.9984 16 38H24V36ZM26 12.4L31.6 18H26V12.4Z" fill="#00A49A"/>
</svg>
