<svg width="70" height="48" viewBox="0 0 70 48" fill="none" xmlns="http://www.w3.org/2000/svg">
<path d="M30.8575 5.3256H17.2713V5.32731L17.2688 5.32731C12.5533 5.32835 8.5191 8.24623 6.87127 12.3738C6.35918 13.6565 6.07755 15.056 6.07755 16.5211C6.07736 18.8181 6.78387 21.0597 8.10121 22.9413L3.73849 25.9956C1.79436 23.2187 0.751685 19.9107 0.751953 16.5209C0.752074 7.40022 8.14682 0.00232324 17.2702 0.00170817V0H30.8575V5.3256Z" fill="#00A49A"/>
<path d="M53.4813 0.0301751H38.8573V5.35577H53.4813C59.661 5.35577 64.6745 10.3678 64.6745 16.5496V30.5479H64.6722C64.6722 36.727 59.6618 41.7399 53.4813 41.7411H38.8573V47.0667H53.4813C62.6037 47.0655 69.9978 39.6677 69.9978 30.5479H70.0001V16.5496C70.0001 7.4263 62.602 0.0301751 53.4813 0.0301751Z" fill="#00A49A"/>
<path fill-rule="evenodd" clip-rule="evenodd" d="M25.346 28.8495C25.1356 28.8756 24.9213 28.889 24.7038 28.889C21.8522 28.889 19.5405 26.5774 19.5405 23.7258C19.5405 20.8742 21.8522 18.5625 24.7038 18.5625C27.5554 18.5625 29.8671 20.8742 29.8671 23.7258C29.8671 24.0857 29.8302 24.4369 29.7602 24.7761C30.4474 26.6193 30.8012 28.5738 30.8011 30.548C30.8011 39.6686 23.4057 47.0667 14.2823 47.0667H0.845894V41.7411H14.2823C20.4639 41.7411 25.4755 36.7278 25.4755 30.5479C25.4755 29.9778 25.432 29.41 25.346 28.8495ZM24.7044 22.2306C24.3081 22.2306 23.928 22.3881 23.6478 22.6683L23.6278 22.6887C23.4723 22.4598 23.3798 22.1787 23.3798 21.8706C23.3798 21.2273 23.7832 20.7014 24.3215 20.5233C24.448 20.5082 24.5758 20.5005 24.7044 20.5005C25.3422 20.5005 25.9656 20.6896 26.4958 21.0439C27.0261 21.3982 27.4394 21.9018 27.6834 22.491C27.9275 23.0802 27.9913 23.7285 27.8669 24.354C27.7701 24.8407 27.5627 25.2966 27.2629 25.6874C27.2647 25.6522 27.2655 25.6167 27.2655 25.581C27.2655 24.7875 26.8353 24.117 26.1986 23.7083C26.1965 23.5186 26.1583 23.3301 26.085 23.1531C25.9719 22.88 25.7804 22.6467 25.5346 22.4825C25.2889 22.3183 25 22.2306 24.7044 22.2306ZM25.7611 24.7816C25.8171 24.7256 25.8683 24.6655 25.9143 24.6019C26.2064 24.8635 26.3779 25.2161 26.3779 25.581C26.3779 26.1297 25.9899 26.6508 25.3873 26.8762C25.3694 26.8801 25.3515 26.8838 25.3335 26.8874C24.708 27.0118 24.0597 26.948 23.4705 26.7039C22.8813 26.4599 22.3777 26.0466 22.0234 25.5163C21.6691 24.9861 21.48 24.3627 21.48 23.7249C21.48 22.8698 21.8197 22.0496 22.4244 21.4449C22.4675 21.4018 22.5117 21.36 22.5569 21.3196C22.5146 21.4966 22.4922 21.6812 22.4922 21.8706C22.4922 22.5378 22.7703 23.1455 23.2183 23.5683C23.2129 23.6201 23.2101 23.6724 23.2101 23.7249C23.2101 24.0205 23.2978 24.3094 23.462 24.5551C23.6262 24.8009 23.8595 24.9924 24.1326 25.1055C24.4056 25.2186 24.7061 25.2482 24.996 25.1905C25.2858 25.1329 25.5521 24.9906 25.7611 24.7816Z" fill="#00A49A"/>
<path d="M13.2557 14.8871V18.5257H16.8232V20.4626H11.3188V14.8871H13.2557Z" fill="#00A49A"/>
<path d="M13.5115 24.9608C13.3494 24.5692 13.2659 24.1495 13.266 23.7256L11.3291 23.7254C11.329 24.4036 11.4625 25.0753 11.722 25.7019C11.9816 26.3285 12.362 26.8979 12.8416 27.3775C13.3212 27.8571 13.8905 28.2375 14.5172 28.497C15.1438 28.7565 15.8154 28.8901 16.4936 28.89H16.8232V26.9531H16.4936C16.0697 26.9531 15.6499 26.8697 15.2583 26.7075C14.8667 26.5454 14.5109 26.3076 14.2112 26.0079C13.9115 25.7082 13.6737 25.3524 13.5115 24.9608Z" fill="#00A49A"/>
<path d="M45.2341 20.7431C44.6444 20.4988 43.9955 20.4348 43.3694 20.5593C42.7433 20.6838 42.1682 20.9912 41.7168 21.4425C41.2654 21.8939 40.958 22.4689 40.8334 23.095C40.7088 23.7211 40.7727 24.37 41.0169 24.9598C41.2611 25.5495 41.6747 26.0537 42.2054 26.4084C42.7361 26.763 43.36 26.9524 43.9983 26.9525H44.3285V28.8894H43.9983C42.9769 28.8893 41.9784 28.5863 41.1292 28.0187C40.28 27.4511 39.6181 26.6445 39.2273 25.7008C38.8366 24.7571 38.7344 23.7187 38.9337 22.717C39.1331 21.7152 39.625 20.795 40.3473 20.0729C41.0696 19.3507 41.9898 18.8589 42.9916 18.6596C43.9934 18.4604 45.0318 18.5627 45.9754 18.9537C46.9191 19.3446 47.7256 20.0065 48.2931 20.8558C48.8605 21.7051 49.1634 22.7035 49.1634 23.7249V25.1864L44.3285 25.187V23.2501H47.1914C47.1215 22.7804 46.9485 22.3299 46.6826 21.9318C46.3279 21.4011 45.8239 20.9874 45.2341 20.7431Z" fill="#00A49A"/>
<path d="M53.5965 21.4433C54.2018 20.838 55.0227 20.4979 55.8787 20.4979C56.7347 20.4979 57.5557 20.838 58.161 21.4433C58.7663 22.0486 59.1063 22.8695 59.1063 23.7255H59.1086V28.8587H61.0455V23.7249H61.0432C61.0431 22.3554 60.499 21.0421 59.5306 20.0737C58.562 19.1051 57.2484 18.561 55.8787 18.561C54.509 18.561 53.1954 19.1051 52.2269 20.0737C51.2584 21.0422 50.7143 22.3558 50.7143 23.7255V28.8592H52.6511V23.7255C52.6511 22.8695 52.9912 22.0486 53.5965 21.4433Z" fill="#00A49A"/>
<path d="M34.8318 21.3141C35.5577 20.5882 35.9655 19.6036 35.9655 18.577H37.9024C37.9024 20.1173 37.2905 21.5945 36.2013 22.6837C35.7883 23.0968 35.3195 23.4411 34.8126 23.7096C35.3195 23.978 35.7883 24.3224 36.2013 24.7354C37.2905 25.8246 37.9024 27.3018 37.9024 28.8422H35.9655C35.9655 27.8155 35.5577 26.8309 34.8318 26.105C34.1058 25.3791 33.1212 24.9712 32.0946 24.9712V22.4479C33.1212 22.4479 34.1058 22.0401 34.8318 21.3141Z" fill="#00A49A"/>
</svg>
