<svg width="48" height="48" viewBox="0 0 48 48" fill="none" xmlns="http://www.w3.org/2000/svg">
<g clip-path="url(#clip0_24_3443)">
<mask id="mask0_24_3443" style="mask-type:alpha" maskUnits="userSpaceOnUse" x="12" y="12" width="24" height="24">
<path d="M12 12H36V36H12V12Z" fill="white"/>
</mask>
<g mask="url(#mask0_24_3443)">
<path d="M35.5001 18.5071C35.3642 18.0223 35.0995 17.5834 34.7341 17.2371C34.3584 16.8801 33.8979 16.6247 33.3961 16.4951C31.5181 16.0001 23.9941 16.0001 23.9941 16.0001C20.8575 15.9644 17.7216 16.1214 14.6041 16.4701C14.1023 16.6093 13.6427 16.8704 13.2661 17.2301C12.8961 17.5861 12.6281 18.0251 12.4881 18.5061C12.1518 20.3178 11.9884 22.1574 12.0001 24.0001C11.9881 25.8411 12.1511 27.6801 12.4881 29.4941C12.6251 29.9731 12.8921 30.4101 13.2631 30.7631C13.6341 31.1161 14.0961 31.3711 14.6041 31.5061C16.5071 32.0001 23.9941 32.0001 23.9941 32.0001C27.1348 32.0358 30.2747 31.8789 33.3961 31.5301C33.8979 31.4004 34.3584 31.1451 34.7341 30.7881C35.0994 30.4418 35.3638 30.0029 35.4991 29.5181C35.8442 27.707 36.012 25.8667 36.0001 24.0231C36.0261 22.1717 35.8585 20.3226 35.5001 18.5061V18.5071ZM21.6021 27.4241V20.5771L27.8621 24.0011L21.6021 27.4241Z" fill="#00A49A"/>
</g>
</g>
<rect x="0.5" y="0.5" width="47" height="47" stroke="#00A49A"/>
<defs>
<clipPath id="clip0_24_3443">
<rect width="24" height="24" fill="white" transform="translate(12 12)"/>
</clipPath>
</defs>
</svg>
